<?xml version="1.0" encoding="utf-8"?>
<!-- Generator: Adobe Illustrator 15.1.0, SVG Export Plug-In . SVG Version: 6.00 Build 0)  -->
<!DOCTYPE svg PUBLIC "-//W3C//DTD SVG 1.1//EN" "http://www.w3.org/Graphics/SVG/1.1/DTD/svg11.dtd">
<svg version="1.1" id="Layer_1" xmlns="http://www.w3.org/2000/svg" xmlns:xlink="http://www.w3.org/1999/xlink" x="0px" y="0px"
	 width="326.914px" height="57.504px" viewBox="0 0 326.914 57.504" enable-background="new 0 0 326.914 57.504"
	 xml:space="preserve">
<g>
	<path fill="#E41421" d="M8.448,49.152C2.815,43.584,0,36.801,0,28.8c0-8,2.815-14.799,8.448-20.4C14.079,2.8,20.895,0,28.896,0
		c7.935,0,14.719,2.8,20.352,8.4c5.631,5.601,8.448,12.4,8.448,20.4c0,8.001-2.817,14.784-8.448,20.352
		c-5.633,5.568-12.417,8.352-20.352,8.352C20.895,57.504,14.079,54.72,8.448,49.152z M12,38.304c0,0.641,0.319,0.96,0.96,0.96
		h15.744c0.511,0,0.831-0.144,0.96-0.432c0.127-0.288,0.063-0.56-0.192-0.816l-5.376-7.104c2.432-1.023,3.648-2.976,3.648-5.856
		c0-2.047-0.657-3.679-1.968-4.896c-1.313-1.215-3.12-1.824-5.424-1.824h-7.2c-0.768,0-1.152,0.353-1.152,1.056V38.304z
		 M31.488,38.304c0,0.192,0.08,0.4,0.24,0.624c0.159,0.225,0.303,0.336,0.432,0.336h7.68c2.432,0,4.352-0.56,5.76-1.68
		c1.407-1.119,2.112-2.672,2.112-4.656c0-2.559-0.993-4.255-2.976-5.088c0.768-0.96,1.152-2.175,1.152-3.648
		c0-3.903-2.176-5.856-6.528-5.856h-6.816c-0.705,0-1.056,0.384-1.056,1.152V38.304z"/>
	<path fill="#4B4F59" d="M80.002,53.376V5.28H92.29c4.16,0,7.2,0.993,9.12,2.976c1.92,1.984,2.88,5.249,2.88,9.792
		c0,5.825-1.92,9.504-5.76,11.04c3.264,0.705,4.896,3.585,4.896,8.64l0.385,10.368v5.28h-7.776V48.48v-9.888
		c0-1.728-0.321-2.976-0.96-3.744c-0.641-0.768-1.824-1.152-3.552-1.152h-3.744v19.68H80.002z M87.778,27.456h3.744
		c0.446,0,0.864-0.032,1.248-0.096c0.384-0.063,0.72-0.176,1.008-0.336c0.288-0.159,0.543-0.288,0.768-0.384
		c0.224-0.096,0.433-0.319,0.624-0.672c0.192-0.351,0.336-0.576,0.433-0.672c0.096-0.096,0.224-0.384,0.384-0.864
		c0.159-0.48,0.255-0.768,0.288-0.864c0.031-0.096,0.127-0.416,0.288-0.96c0.159-0.543,0.239-0.848,0.239-0.912v-3.648
		c0-1.599-0.448-2.959-1.344-4.08c-0.896-1.119-2.208-1.68-3.936-1.68h-3.744V27.456z M109.57,53.376V5.28h20.64v7.008h-13.151
		v12.288h10.655v7.392h-10.655v14.496h13.151v6.912H109.57z M135.106,53.376V5.28h12.768c7.424,0,11.136,3.712,11.136,11.136v25.44
		c0,7.68-3.712,11.52-11.136,11.52H135.106z M142.979,46.464h3.647c1.791,0,2.991-0.416,3.601-1.248
		c0.607-0.831,0.911-2.208,0.911-4.128V16.8c0-3.007-1.504-4.512-4.512-4.512h-3.647V46.464z M165.154,53.376V5.28h13.151
		c7.424,0,11.137,3.969,11.137,11.904c0,2.753-0.609,5.153-1.824,7.2c-1.217,2.049-2.817,3.489-4.8,4.32
		c1.855,0.449,3.423,1.68,4.704,3.696c1.279,2.016,1.92,4.368,1.92,7.056c0,4.481-1.008,7.92-3.024,10.32
		c-2.016,2.4-4.56,3.6-7.632,3.6H165.154z M172.546,25.824h4.128c1.664,0,2.832-0.367,3.504-1.104c0.673-0.735,1.009-2,1.009-3.792
		v-3.744c0-1.791-0.336-3.055-1.009-3.792c-0.672-0.735-1.84-1.104-3.504-1.104h-4.128V25.824z M172.546,46.464h4.128
		c3.327,0,4.992-1.952,4.992-5.856v-3.264c0-2.047-0.448-3.456-1.344-4.224c-0.897-0.768-2.368-1.152-4.416-1.152h-3.36V46.464z
		 M193.954,41.856V5.28h7.872v35.808c0,4.096,1.375,6.144,4.128,6.144c2.688,0,4.031-2.048,4.031-6.144V5.28h7.873v35.808
		c0,4.032-1.074,7.296-3.217,9.792c-2.145,2.496-5.201,3.744-9.168,3.744c-3.712,0-6.561-1.104-8.544-3.312
		C194.945,49.104,193.954,45.952,193.954,41.856z M223.234,53.376V5.28h13.537c7.422,0,11.135,3.969,11.135,11.904
		c0,2.817-0.641,5.232-1.92,7.248c-1.281,2.016-2.977,3.441-5.088,4.272c2.047,0.449,3.729,1.68,5.041,3.696
		c1.311,2.016,1.967,4.368,1.967,7.056c0,4.416-1.057,7.841-3.168,10.272c-2.111,2.433-4.641,3.648-7.584,3.648H223.234z
		 M231.009,25.824h4.129c1.6,0,2.688-0.351,3.264-1.056c0.576-0.703,0.863-1.983,0.863-3.84v-3.744c0-1.855-0.287-3.135-0.863-3.84
		c-0.576-0.704-1.664-1.056-3.264-1.056h-4.129V25.824z M231.009,46.464h4.129c3.264,0,4.896-1.952,4.896-5.856v-3.264
		c0-1.855-0.449-3.216-1.344-4.08c-0.898-0.864-2.369-1.296-4.416-1.296h-3.266V46.464z M252.802,53.376V5.28h13.248
		c7.104,0,10.656,3.969,10.656,11.904c0,5.825-2.049,9.665-6.145,11.52c1.855,0.449,3.408,1.68,4.656,3.696s1.871,4.368,1.871,7.056
		c0,4.481-1.008,7.92-3.023,10.32s-4.561,3.6-7.633,3.6H252.802z M260.673,25.824h3.648c1.664,0,2.848-0.367,3.553-1.104
		c0.703-0.735,1.055-2,1.055-3.792v-3.744c0-1.791-0.352-3.055-1.055-3.792c-0.705-0.735-1.889-1.104-3.553-1.104h-3.648V25.824z
		 M260.673,46.464h3.266c3.326,0,4.99-1.952,4.99-5.856v-3.264c0-1.855-0.367-3.216-1.104-4.08
		c-0.736-0.864-2.031-1.296-3.887-1.296h-3.266V46.464z M282.082,53.376V5.28h7.777v41.184h12.383v6.912H282.082z M306.753,53.376
		V5.28h20.16v7.008h-11.904v12.288h9.889v7.392h-9.889v14.496h11.904v6.912H306.753z"/>
</g>
</svg>
