<?xml version="1.0" encoding="utf-8"?>
<!-- Generator: Adobe Illustrator 15.1.0, SVG Export Plug-In . SVG Version: 6.00 Build 0)  -->
<!DOCTYPE svg PUBLIC "-//W3C//DTD SVG 1.1//EN" "http://www.w3.org/Graphics/SVG/1.1/DTD/svg11.dtd">
<svg version="1.1" id="Layer_1" xmlns="http://www.w3.org/2000/svg" xmlns:xlink="http://www.w3.org/1999/xlink" x="0px" y="0px"
	 width="57.696px" height="57.504px" viewBox="0 0 57.696 57.504" enable-background="new 0 0 57.696 57.504" xml:space="preserve">
<g>
	<path fill="#E41421" d="M8.448,49.152C2.815,43.584,0,36.801,0,28.8c0-8,2.815-14.799,8.448-20.4C14.079,2.8,20.895,0,28.896,0
		c7.935,0,14.719,2.8,20.352,8.4c5.631,5.601,8.448,12.4,8.448,20.4c0,8.001-2.817,14.784-8.448,20.352
		c-5.633,5.568-12.417,8.352-20.352,8.352C20.895,57.504,14.079,54.72,8.448,49.152z M12,38.304c0,0.641,0.319,0.96,0.96,0.96
		h15.744c0.511,0,0.831-0.144,0.96-0.432c0.127-0.288,0.063-0.56-0.192-0.816l-5.376-7.104c2.432-1.023,3.648-2.976,3.648-5.856
		c0-2.047-0.657-3.679-1.968-4.896c-1.313-1.215-3.12-1.824-5.424-1.824h-7.2c-0.768,0-1.152,0.353-1.152,1.056V38.304z
		 M31.488,38.304c0,0.192,0.08,0.4,0.24,0.624c0.159,0.225,0.303,0.336,0.432,0.336h7.68c2.432,0,4.352-0.56,5.76-1.68
		c1.407-1.119,2.112-2.672,2.112-4.656c0-2.559-0.993-4.255-2.976-5.088c0.768-0.96,1.152-2.175,1.152-3.648
		c0-3.903-2.176-5.856-6.528-5.856h-6.816c-0.705,0-1.056,0.384-1.056,1.152V38.304z"/>
</g>
</svg>
